0
SECTION
2
HEADER
9
$INSUNITS
70
4
9
$ACADVER
1
AC1014
9
$HANDSEED
5
FFFF
0
ENDSEC
0
SECTION
2
TABLES
0
TABLE
2
VPORT
5
8
100
AcDbSymbolTable
0
ENDTAB
0
TABLE
2
LTYPE
5
5
100
AcDbSymbolTable
0
LTYPE
5
14
100
AcDbSymbolTableRecord
100
AcDbLinetypeTableRecord
2
BYBLOCK
70
0
0
LTYPE
5
15
100
AcDbSymbolTableRecord
100
AcDbLinetypeTableRecord
2
BYLAYER
70
0
0
ENDTAB
0
TABLE
2
LAYER
5
2
100
AcDbSymbolTable
70
2
0
LAYER
5
50
100
AcDbSymbolTableRecord
100
AcDbLayerTableRecord
2
0
70
0
6
CONTINUOUS
0
ENDTAB
0
TABLE
2
STYLE
5
3
100
AcDbSymbolTable
70
1
0
STYLE
5
11
100
AcDbSymbolTableRecord
100
AcDbTextStyleTableRecord
2
STANDARD
70
0
0
ENDTAB
0
TABLE
2
VIEW
5
6
100
AcDbSymbolTable
70
0
0
ENDTAB
0
TABLE
2
UCS
5
7
100
AcDbSymbolTable
70
0
0
ENDTAB
0
TABLE
2
APPID
5
9
100
AcDbSymbolTable
70
2
0
APPID
5
12
100
AcDbSymbolTableRecord
100
AcDbRegAppTableRecord
2
ACAD
70
0
0
ENDTAB
0
TABLE
2
DIMSTYLE
5
A
100
AcDbSymbolTable
70
1
0
ENDTAB
0
TABLE
2
BLOCK_RECORD
5
1
100
AcDbSymbolTable
70
1
0
BLOCK_RECORD
5
1F
100
AcDbSymbolTableRecord
100
AcDbBlockTableRecord
2
*MODEL_SPACE
0
BLOCK_RECORD
5
1B
100
AcDbSymbolTableRecord
100
AcDbBlockTableRecord
2
*PAPER_SPACE
0
ENDTAB
0
ENDSEC
0
SECTION
2
BLOCKS
0
BLOCK
5
20
100
AcDbEntity
100
AcDbBlockBegin
2
*MODEL_SPACE
0
ENDBLK
5
21
100
AcDbEntity
100
AcDbBlockEnd
0
BLOCK
5
1C
100
AcDbEntity
100
AcDbBlockBegin
2
*PAPER_SPACE
0
ENDBLK
5
1D
100
AcDbEntity
100
AcDbBlockEnd
0
ENDSEC
0
SECTION
2
ENTITIES
0
LINE
5
100
100
AcDbEntity
8
0
100
AcDbLine
10
-10
20
0
30
0
11
0
21
0
31
0
0
LINE
5
101
100
AcDbEntity
8
0
100
AcDbLine
10
0
20
50
30
0
11
50
21
60
31
0
0
LINE
5
102
100
AcDbEntity
8
0
100
AcDbLine
10
11.836005926189239
20
60.026003868656623
30
0
11
0
21
57.65880268341877
31
0
0
LWPOLYLINE
5
103
100
AcDbEntity
8
0
100
AcDbPolyline
90
2
70
1
43
0.0
10
20
20
90
10
11.836005926189239
20
60.026003868656623
0
LINE
5
104
100
AcDbEntity
8
0
100
AcDbLine
10
25
20
88.638153878775995
30
0
11
17.883908458046395
21
62.51151801642996
31
0
0
ELLIPSE
5
105
100
AcDbEntity
8
0
100
AcDbEllipse
10
66.40028791749603
20
63.280057583499207
30
0
11
17.895501523610204
21
3.5791003047220391
31
0.0
40
0.78649329371638421
41
3.1415926535897936
42
8.8778939318807488
0
ELLIPSE
5
106
100
AcDbEntity
8
0
100
AcDbEllipse
10
25
20
108.35743378813615
30
0
11
0
21
-19.719279909360147
31
0.0
40
0.69434650845954105
41
2.2204460492503131e-16
42
5.9093630305974481
0
LINE
5
107
100
AcDbEntity
8
0
100
AcDbLine
10
0
20
0
30
0
11
0
21
50
31
0
0
LINE
5
108
100
AcDbEntity
8
0
100
AcDbLine
10
0
20
125
30
0
11
54.069549131247499
21
143.186844931911
31
0
0
LINE
5
109
100
AcDbEntity
8
0
100
AcDbLine
10
8.2264204241615975
20
134.09342246595548
30
0
11
0
21
131.3263819597407
31
0
0
LINE
5
110
100
AcDbEntity
8
0
100
AcDbLine
10
19.43774436334067
20
168.67062579886138
30
0
11
8.2264204241615975
21
134.09342246595548
31
0
0
ELLIPSE
5
111
100
AcDbEntity
8
0
100
AcDbEllipse
10
27.932337985657441
20
185.00638276485518
30
0
11
-1.8533940549485273
21
-18.489101728369164
31
0.0
40
0.70152376192805821
41
6.2831853071795862
42
12.036293694636928
0
LINE
5
112
100
AcDbEntity
8
0
100
AcDbLine
10
13.832082393751133
20
134.09342246595548
30
0
11
26.078943930708913
21
166.517281036486
31
0
0
LINE
5
113
100
AcDbEntity
8
0
100
AcDbLine
10
13.832082393751133
20
134.09342246595548
30
0
11
52.157887861417827
21
148.87022010436854
31
0
0
LINE
5
114
100
AcDbEntity
8
0
100
AcDbLine
10
0
20
57.65880268341877
30
0
11
0
21
125
31
0
0
LINE
5
115
100
AcDbEntity
8
0
100
AcDbLine
10
19.43774436334067
20
168.67062579886138
30
0
11
19.775385224054688
21
169.71195479423614
31
0
0
LINE
5
116
100
AcDbEntity
8
0
100
AcDbLine
10
48.527153330111766
20
67.36423334944115
30
0
11
49.651014635553977
21
67.542209898983032
31
0
0
LINE
5
117
100
AcDbEntity
8
0
100
AcDbLine
10
52.157887861417827
20
148.87022010436854
30
0
11
53.164822329934999
21
149.25845113291078
31
0
0
ELLIPSE
5
118
100
AcDbEntity
8
0
100
AcDbEllipse
10
69.974189060148191
20
151.38202413240845
30
0
11
-15.9046399289007
21
-8.195179200497444
31
0.0
40
0.71091118000066855
41
1.7763568394002505e-15
42
5.8086698491938309
0
LINE
5
119
100
AcDbEntity
8
0
100
AcDbLine
10
0
20
200
30
0
11
50
21
220
31
0
0
LINE
5
120
100
AcDbEntity
8
0
100
AcDbLine
10
48.30734922026469
20
224.23162694933825
30
0
11
48.022733693454931
21
224.94316576636265
31
0
0
LINE
5
121
100
AcDbEntity
8
0
100
AcDbLine
10
48.022733693454931
20
224.94316576636265
30
0
11
0
21
205.73407228898063
31
0
0
ELLIPSE
5
122
100
AcDbEntity
8
0
100
AcDbEllipse
10
66.462172845040968
20
232.31894142699707
30
0
11
-16.462172845040971
21
-12.318941426997084
31
0.0
40
0.64119323851841004
41
0
42
5.9427355548510299
0
LINE
5
123
100
AcDbEntity
8
0
100
AcDbLine
10
0
20
220
30
0
11
30
21
250
31
0
0
LINE
5
124
100
AcDbEntity
8
0
100
AcDbLine
10
26.269476395026352
20
253.73052360497365
30
0
11
0
21
227.46104720994731
31
0
0
ELLIPSE
5
125
100
AcDbEntity
8
0
100
AcDbEllipse
10
38.353179769509609
20
268.43324787454338
30
0
11
-8.3531797695096088
21
-18.43324787454339
31
0.0
40
0.71124836180206796
41
6.2831853071795853
42
12.201535016826005
0
LINE
5
126
100
AcDbEntity
8
0
100
AcDbLine
10
0
20
227.46104720994731
30
0
11
0
21
250.28245326957077
31
0
0
LINE
5
127
100
AcDbEntity
8
0
100
AcDbLine
10
0
20
131.3263819597407
30
0
11
0
21
200
31
0
0
LINE
5
128
100
AcDbEntity
8
0
100
AcDbLine
10
0
20
205.73407228898063
30
0
11
0
21
220
31
0
0
ELLIPSE
5
129
100
AcDbEntity
8
0
100
AcDbEllipse
10
-48.353179769509609
20
268.43324787454338
30
0
11
8.3531797695096088
21
-18.43324787454339
31
0.0
40
0.71124836180206807
41
0.36483559753316619
42
6.2831853071795862
0
LINE
5
130
100
AcDbEntity
8
0
100
AcDbLine
10
-36.269476395026352
20
253.73052360497365
30
0
11
-10.001099056861475
21
227.46214626680882
31
0
0
LINE
5
131
100
AcDbEntity
8
0
100
AcDbLine
10
-10
20
220
30
0
11
-40
21
250
31
0
0
LINE
5
132
100
AcDbEntity
8
0
100
AcDbLine
10
-58.022733693454931
20
224.94316576636265
30
0
11
-10
21
205.73407228898063
31
0
0
LINE
5
133
100
AcDbEntity
8
0
100
AcDbLine
10
-10
20
200
30
0
11
-60
21
220
31
0
0
LWPOLYLINE
5
134
100
AcDbEntity
8
0
100
AcDbPolyline
90
2
70
1
43
0.0
10
-10
20
205.73407228898063
10
-10
20
220
0
LINE
5
135
100
AcDbEntity
8
0
100
AcDbLine
10
-10.001099056861475
20
227.46214626680882
30
0
11
-10.000000000000002
21
250.28242954396561
31
0
0
ELLIPSE
5
136
100
AcDbEntity
8
0
100
AcDbEllipse
10
-76.462172845040968
20
232.31894142699707
30
0
11
16.462172845040971
21
-12.318941426997082
31
0.0
40
0.64119323851841015
41
0.34044975232855945
42
6.2831853071795862
0
ELLIPSE
5
137
100
AcDbEntity
8
0
100
AcDbEllipse
10
-37.932337985657441
20
185.00638276485518
30
0
11
1.8533940549485273
21
-18.489101728369164
31
0.0
40
0.70152376192805821
41
0.53007691972224458
42
6.2831853071795862
0
LINE
5
138
100
AcDbEntity
8
0
100
AcDbLine
10
-23.832082393751133
20
134.09342246595548
30
0
11
-36.078943930708917
21
166.517281036486
31
0
0
LINE
5
139
100
AcDbEntity
8
0
100
AcDbLine
10
-29.43774436334067
20
168.67062579886138
30
0
11
-18.226420424161599
21
134.09342246595548
31
0
0
LWPOLYLINE
5
140
100
AcDbEntity
8
0
100
AcDbPolyline
90
2
70
1
43
0.0
10
-10
20
131.3263819597407
10
-10
20
200
0
LINE
5
141
100
AcDbEntity
8
0
100
AcDbLine
10
-10
20
125
30
0
11
-64.069549131247499
21
143.186844931911
31
0
0
LINE
5
142
100
AcDbEntity
8
0
100
AcDbLine
10
-23.832082393751133
20
134.09342246595548
30
0
11
-62.157887861417827
21
148.87022010436854
31
0
0
ELLIPSE
5
143
100
AcDbEntity
8
0
100
AcDbEllipse
10
-79.974189060148191
20
151.38202413240845
30
0
11
15.9046399289007
21
-8.1951792004974422
31
0.0
40
0.71091118000066855
41
0.47451545798575645
42
6.2831853071795853
0
LWPOLYLINE
5
144
100
AcDbEntity
8
0
100
AcDbPolyline
90
2
70
1
43
0.0
10
-10
20
57.65880268341877
10
-10
20
125
0
ELLIPSE
5
145
100
AcDbEntity
8
0
100
AcDbEllipse
10
-35
20
108.35743378813615
30
0
11
0
21
-19.719279909360147
31
0.0
40
0.69434650845954105
41
0.37382227658213796
42
6.2831853071795862
0
LINE
5
146
100
AcDbEntity
8
0
100
AcDbLine
10
-21.836005926189237
20
60.026003868656623
30
0
11
-30
21
90
31
0
0
LINE
5
147
100
AcDbEntity
8
0
100
AcDbLine
10
-35
20
88.638153878775995
30
0
11
-27.883908458046392
21
62.51151801642996
31
0
0
ELLIPSE
5
148
100
AcDbEntity
8
0
100
AcDbEllipse
10
-76.40028791749603
20
63.280057583499207
30
0
11
-17.895501523610204
21
3.5791003047220391
31
0.0
40
0.78649329371638399
41
3.6884766824784254
42
9.4247779607693793
0
LINE
5
149
100
AcDbEntity
8
0
100
AcDbLine
10
-10
20
50
30
0
11
-60
21
60
31
0
0
LINE
5
150
100
AcDbEntity
8
0
100
AcDbLine
10
-10
20
0
30
0
11
-10
21
50
31
0
0
LINE
5
151
100
AcDbEntity
8
0
100
AcDbLine
10
-18.226420424161599
20
134.09342246595548
30
0
11
-10
21
131.3263819597407
31
0
0
LINE
5
152
100
AcDbEntity
8
0
100
AcDbLine
10
-21.836005926189237
20
60.026003868656623
30
0
11
-10
21
57.65880268341877
31
0
0
LINE
5
153
100
AcDbEntity
8
0
100
AcDbLine
10
0
20
250.28245326957077
30
0
11
-3.1264087917624547e-06
21
251.28245700975737
31
0
0
LINE
5
154
100
AcDbEntity
8
0
100
AcDbLine
10
-10.000000000000002
20
250.28242954396561
30
0
11
-9.9999518384168375
21
251.28243328299732
31
0
0
ELLIPSE
5
155
100
AcDbEntity
8
0
100
AcDbEllipse
10
-5
20
275
30
0
11
0
21
-25
31
0.0
40
0.63256569591346401
41
0.32169229522031356
42
5.9614960137215691
0
LINE
5
156
100
AcDbEntity
8
0
100
AcDbLine
10
-10
20
50
30
0
11
-10
21
0
31
0
0
LINE
5
157
100
AcDbEntity
8
0
100
AcDbLine
10
-27.883908458046392
20
62.51151801642996
30
0
11
-27.33227706741944
21
60.486210670651573
31
0
0
LINE
5
158
100
AcDbEntity
8
0
100
AcDbLine
10
-27.33227706741944
20
60.486210670651573
30
0
11
-59.651014635553977
21
67.542209898983032
31
0
0
LINE
5
159
100
AcDbEntity
8
0
100
AcDbLine
10
17.883908458046395
20
62.51151801642996
30
0
11
17.364094553106074
21
60.603028148011056
31
0
0
LINE
5
160
100
AcDbEntity
8
0
100
AcDbLine
10
17.364094553106074
20
60.603028148011056
30
0
11
48.527153330111766
21
67.36423334944115
31
0
0
ENDSEC
0
SECTION
2
OBJECTS
0
DICTIONARY
5
C
100
AcDbDictionary
3
ACAD_GROUP
350
D
3
ACAD_MLINESTYLE
350
17
0
DICTIONARY
5
D
100
AcDbDictionary
0
DICTIONARY
5
1A
330
C
100
AcDbDictionary
0
DICTIONARY
5
17
100
AcDbDictionary
0
ENDSEC
0
EOF
